# xmcd
#
# Track frame offsets:
#	150
#	11768
#	24964
#	37889
#	49817
#	61912
#	74271
#	86128
#	98481
#	111095
#	123199
#	135056
#	148933
#	160749
#	172704
#	184199
#	196656
#	208666
#	220161
#	232673
#	245347
#	256926
#	269007
#	277289
#
# Disc length: 3799 seconds
#
# Revision: 0
# Processed by: cddbd v1.4PL0 Copyright (c) Steve Scherf et al.
# Submitted via: OrangeCD 4.1
#
DISCID=460ed518
DTITLE=Big Joe Turner - With Pete Johnson's Orchestra - Tell Me Pretty Baby
DYEAR=1900
DGENRE=
TTITLE0=Wine-O-Baby Boogie
TTITLE1=B and O Blues
TTITLE2=Rocket Boogie 88, Pt. 1
TTITLE3=Old Piney Brown's Gone
TTITLE4=Baby, Won't You Marry Me
TTITLE5=Skid Row Boogie
TTITLE6=Christmas Date Boogie
TTITLE7=Radar Blues
TTITLE8=Tell Me Pretty Baby
TTITLE9=Rocket Boogie 88, Pt. 2
TTITLE10=Trouble Blues
TTITLE11=Half Tight Boogie
TTITLE12=Mardi Gras Boogie
TTITLE13=My Heart Belongs to YHou
TTITLE14=So Many Women Blues
TTITLE15=Messin' Around
TTITLE16=I Don't Dig It
TTITLE17=Rainy Weather Blues
TTITLE18=Boogie Woogie Baby
TTITLE19=Married Woman
TTITLE20=Feelin' So Sad
TTITLE21=Moody Baby
TTITLE22=Around The Clock Blues, Pt. 1
TTITLE23=Around The Clock Blues, Pt. 2
EXTD=
EXTT0=
EXTT1=
EXTT2=
EXTT3=
EXTT4=
EXTT5=
EXTT6=
EXTT7=
EXTT8=
EXTT9=
EXTT10=
EXTT11=
EXTT12=
EXTT13=
EXTT14=
EXTT15=
EXTT16=
EXTT17=
EXTT18=
EXTT19=
EXTT20=
EXTT21=
EXTT22=
EXTT23=
PLAYORDER=
